<?xml version="1.0" standalone="no"?>
<!DOCTYPE svg PUBLIC "-//W3C//DTD SVG 20010904//EN"
 "http://www.w3.org/TR/2001/REC-SVG-20010904/DTD/svg10.dtd">
<svg version="1.0" xmlns="http://www.w3.org/2000/svg"
 width="870.000000pt" height="870.000000pt" viewBox="0 0 870.000000 870.000000"
 preserveAspectRatio="xMidYMid meet">
<metadata>
Created by potrace 1.11, written by Peter Selinger 2001-2013
</metadata>
<g transform="translate(0.000000,870.000000) scale(0.100000,-0.100000)"
fill="#000000" stroke="none">
<path d="M3934 7857 c-5 -6 -13 -19 -16 -28 -5 -13 -34 -18 -148 -27 -135 -10
-161 -15 -148 -28 3 -3 78 -8 167 -11 125 -5 161 -9 161 -20 0 -7 -4 -13 -10
-13 -5 0 -10 -9 -10 -20 0 -14 -27 -40 -82 -81 -74 -53 -87 -59 -118 -54 -28
5 -37 2 -48 -15 -16 -26 -6 -67 19 -73 17 -5 19 -15 19 -84 l0 -79 -112 -11
c-62 -5 -129 -17 -149 -26 -33 -13 -38 -21 -48 -68 -8 -36 -8 -56 -1 -63 12
-12 13 -73 1 -80 -4 -3 -5 -25 -1 -48 6 -30 18 -51 39 -69 17 -14 31 -33 31
-43 0 -25 39 -35 77 -20 36 16 101 18 121 5 11 -7 13 -44 7 -192 -3 -101 -8
-194 -11 -206 -3 -17 -153 -148 -160 -140 -4 4 -182 485 -199 537 -35 108
-105 254 -136 286 -17 18 -54 43 -82 55 -64 27 -157 23 -234 -11 -71 -30 -140
-105 -149 -160 -4 -23 -11 -37 -15 -33 -17 17 -49 168 -49 230 0 76 7 91 71
160 27 28 49 59 49 67 0 9 -11 23 -25 32 -99 65 -552 -104 -620 -230 -19 -34
-19 -37 -2 -53 14 -14 35 -18 95 -18 69 0 81 -3 115 -29 20 -16 57 -59 82 -96
59 -89 258 -497 375 -770 51 -118 101 -232 112 -253 11 -22 18 -40 16 -42 -24
-21 -110 -65 -118 -60 -6 4 -21 23 -34 43 -13 21 -94 129 -181 242 -348 451
-414 592 -355 755 35 97 36 105 11 105 -61 0 -251 -130 -395 -269 -104 -101
-146 -155 -146 -188 0 -12 1 -23 3 -23 1 0 29 9 61 20 48 17 66 19 109 11 121
-23 181 -58 292 -171 l70 -71 -45 20 c-25 11 -56 21 -69 21 -42 0 -109 -40
-155 -92 -53 -60 -71 -48 -26 17 37 54 21 60 -26 10 -36 -39 -50 -86 -40 -138
4 -17 8 -41 10 -51 1 -11 12 -23 24 -27 11 -4 26 -18 33 -31 6 -13 62 -86 124
-163 62 -78 118 -151 124 -164 7 -12 48 -64 91 -116 l79 -92 -33 -32 -33 -32
-269 258 c-148 142 -407 388 -574 547 -168 159 -306 292 -308 296 -5 13 29 22
111 30 99 11 147 34 332 157 179 120 248 178 223 188 -21 8 -127 -19 -193 -49
-27 -12 -88 -55 -135 -95 -111 -94 -168 -121 -274 -132 -46 -5 -96 -13 -111
-19 -23 -9 -32 -7 -48 7 -11 10 -200 188 -421 396 -319 301 -408 379 -438 388
-108 29 -207 -72 -178 -181 9 -35 74 -100 501 -506 l490 -466 140 -279 c76
-153 136 -280 132 -280 -5 -1 -19 -2 -33 -3 -33 -1 -39 -37 -11 -65 23 -23 51
-18 51 10 0 28 17 23 35 -11 20 -39 19 -43 -9 -36 -14 3 -28 2 -31 -4 -11 -18
-22 -11 -127 71 -140 111 -195 165 -226 224 -24 45 -26 60 -26 148 1 70 -2 97
-11 97 -22 0 -194 -188 -250 -274 -61 -93 -109 -192 -100 -207 3 -5 29 3 56
17 80 40 144 49 218 30 69 -18 111 -41 348 -196 135 -88 162 -110 167 -135 7
-32 42 -75 62 -75 7 0 20 7 29 16 14 15 19 14 51 -11 32 -24 34 -29 20 -37
-11 -6 -22 -6 -30 1 -19 16 -45 3 -52 -25 -4 -15 2 -36 16 -59 18 -29 28 -35
49 -33 18 2 27 10 29 25 2 12 9 26 16 32 10 8 18 -1 36 -38 25 -54 20 -83 -10
-56 -41 37 -72 -15 -42 -73 15 -30 25 -37 48 -37 24 0 30 5 32 28 2 15 9 27
15 27 7 0 49 -74 94 -164 l82 -165 -43 -93 c-24 -51 -46 -102 -50 -113 -5 -18
-20 -7 -114 85 -170 166 -331 270 -533 345 -127 47 -157 88 -177 240 l-8 60
-26 -45 c-42 -71 -95 -244 -114 -370 -13 -90 -15 -152 -10 -285 3 -93 9 -188
13 -209 l8 -39 37 60 c47 75 104 128 175 160 46 21 66 25 118 21 145 -12 356
-162 473 -336 l35 -53 -21 -112 c-40 -208 -47 -288 -47 -532 0 -253 9 -343 52
-550 188 -904 844 -1670 1737 -2029 49 -20 90 -35 92 -34 1 2 -26 27 -62 55
-127 105 -241 279 -270 415 -37 175 8 342 116 428 68 54 158 90 225 90 215 0
357 -126 380 -337 20 -176 -114 -318 -312 -331 -40 -3 -73 -9 -73 -14 0 -22
65 -134 101 -172 78 -86 221 -136 382 -136 306 1 597 217 693 515 28 86 43
277 30 369 l-7 46 -98 -6 c-327 -22 -682 96 -911 302 -30 27 -81 71 -112 97
-244 205 -409 668 -369 1040 43 393 275 726 767 1099 110 83 271 192 378 253
l68 40 -7 255 c-17 650 61 940 324 1201 183 181 369 218 524 104 99 -73 205
-258 254 -442 23 -87 26 -117 26 -258 0 -133 -3 -173 -21 -240 -56 -204 -218
-459 -437 -684 -124 -128 -243 -225 -365 -296 l-82 -48 6 -111 c3 -61 9 -165
12 -231 l6 -121 142 -1 c118 0 157 -5 240 -27 197 -51 362 -154 493 -306 84
-97 118 -170 160 -337 24 -95 27 -128 27 -273 1 -144 -2 -176 -23 -250 -45
-162 -121 -299 -230 -413 -131 -138 -384 -277 -574 -317 -45 -9 -57 -15 -53
-27 3 -8 9 -65 12 -126 12 -205 -37 -423 -122 -554 -42 -63 -141 -165 -219
-224 -102 -77 -315 -159 -414 -159 -78 0 -61 -17 30 -29 634 -81 1238 16 1788
290 285 141 507 298 735 519 384 373 632 791 761 1284 107 407 116 859 25
1266 -11 50 -20 94 -20 99 0 5 26 28 57 52 91 68 167 140 325 308 293 311 402
384 613 410 58 7 83 5 144 -11 105 -28 201 -23 238 14 124 125 -197 507 -592
705 -129 65 -217 94 -310 100 -72 5 -83 3 -115 -19 -20 -13 -38 -37 -43 -54
-13 -45 13 -126 67 -206 40 -60 46 -76 53 -145 10 -92 2 -185 -22 -267 -21
-71 -44 -96 -90 -96 -32 0 -35 3 -45 43 -37 154 -81 248 -160 342 -27 33 -52
72 -55 87 -4 15 -11 30 -16 33 -22 15 1 46 151 206 106 114 168 188 185 224
54 109 41 233 -32 329 -33 43 -63 68 -149 123 -18 12 -16 15 21 47 62 55 203
134 249 141 30 5 56 1 94 -14 67 -27 133 -28 155 -3 26 28 22 107 -8 171 -66
140 -296 361 -426 407 -66 23 -106 18 -140 -15 -38 -39 -39 -96 -3 -175 20
-44 24 -65 19 -94 -9 -51 -69 -163 -136 -252 -117 -158 -432 -521 -709 -819
-69 -73 -135 -146 -148 -162 -13 -16 -27 -29 -31 -29 -5 0 -39 25 -77 56 -70
58 -75 68 -48 109 8 12 11 25 7 28 -12 12 128 206 144 200 9 -4 16 2 20 16 3
11 9 21 14 21 5 0 9 18 9 39 0 25 5 41 15 45 8 3 15 15 15 27 0 23 85 151 125
189 14 13 25 32 25 42 0 20 177 237 230 281 17 15 43 27 56 27 22 0 24 3 19
23 -13 43 -150 144 -210 154 l-34 5 2 -43 c1 -36 -11 -69 -65 -179 -61 -123
-262 -445 -309 -496 -10 -11 -19 -24 -19 -28 0 -14 -63 -101 -89 -123 -14 -12
-34 -22 -43 -23 -20 0 -24 -20 -7 -37 8 -8 1 -27 -25 -68 l-37 -57 -32 25
c-18 14 -31 31 -31 39 1 7 140 355 308 772 324 804 327 813 289 876 -20 34
-81 70 -118 70 -38 0 -92 -28 -114 -59 -10 -14 -52 -111 -94 -216 -277 -693
-520 -1291 -527 -1299 -10 -10 -219 82 -226 100 -6 13 118 368 157 450 16 34
48 79 72 101 46 43 138 83 187 83 20 0 30 5 30 15 0 21 -205 118 -313 149 -89
26 -234 49 -249 40 -5 -3 12 -25 36 -49 89 -90 116 -205 81 -356 -19 -85 -91
-343 -105 -376 l-9 -22 -76 25 -75 26 0 56 c0 32 14 140 31 242 17 102 33 203
35 225 15 142 39 288 51 303 12 16 13 16 7 0 -11 -31 24 -21 41 12 19 36 19
40 0 40 -8 0 -15 -4 -15 -10 0 -5 -7 -10 -16 -10 -9 0 -14 7 -12 18 1 9 -1 22
-4 28 -4 6 2 64 12 130 11 65 20 122 20 127 0 4 7 7 15 7 19 0 38 36 30 60 -5
16 -15 20 -48 20 -33 0 -65 13 -145 59 -99 56 -132 88 -132 127 0 17 -6 17
150 -2 161 -19 199 -14 65 10 -141 24 -173 35 -177 59 -2 11 -11 25 -20 31
-15 9 -23 6 -44 -18 -25 -26 -31 -28 -78 -22 -113 13 -201 18 -195 12 3 -3 68
-17 144 -29 76 -13 140 -28 142 -34 2 -6 -3 -18 -12 -26 -22 -23 -19 -57 5
-57 11 0 70 -28 130 -62 85 -49 108 -67 104 -80 -3 -9 4 -26 15 -37 20 -20 20
-21 1 -142 -11 -67 -24 -125 -29 -128 -5 -4 -15 -54 -20 -111 -22 -207 -38
-270 -80 -308 -25 -23 -25 -23 -4 -19 13 3 25 2 28 -2 5 -9 -49 -361 -63 -406
-8 -26 -13 -30 -42 -27 -49 4 -57 15 -62 86 -8 96 -42 159 -147 272 -50 53
-92 104 -92 113 -3 29 3 116 8 124 2 4 16 -2 30 -13 14 -11 39 -20 55 -20 120
0 358 242 358 365 0 38 -18 60 -97 117 -90 65 -149 115 -205 173 -73 74 -96
85 -153 73 -112 -25 -239 -150 -280 -276 -17 -50 -17 -64 1 -106 7 -17 5 -17
-14 2 -25 25 -64 29 -82 7 -16 -19 -50 -19 -75 -1 -17 12 -18 18 -7 53 18 61
15 131 -9 179 -54 113 -218 185 -349 154 -82 -20 -176 -121 -194 -210 -3 -14
-18 -44 -33 -67 -24 -38 -32 -43 -64 -43 -66 0 -69 4 -69 91 0 62 3 79 14 79
23 0 48 41 34 57 -13 16 -18 11 72 78 41 30 81 55 91 55 26 0 35 38 13 54 -9
7 -15 20 -12 28 5 12 36 16 150 21 80 3 152 9 162 13 38 15 -12 24 -134 24
-130 0 -138 2 -156 35 -13 24 -35 29 -50 12z m2699 -255 c19 -19 27 -39 27
-63 0 -22 -79 -231 -215 -569 -272 -677 -265 -660 -279 -660 -11 0 -167 58
-174 65 -8 8 485 1212 505 1233 34 34 101 31 136 -6z m-6375 -184 c175 -163
752 -710 752 -715 0 -3 -12 -19 -26 -36 -25 -30 -26 -36 -21 -111 l5 -79 -86
85 c-48 47 -224 214 -392 373 -439 414 -430 404 -430 454 0 57 33 91 90 91 36
0 48 -7 108 -62z m2820 -242 c44 -23 70 -57 97 -129 14 -37 25 -72 25 -77 0
-6 -13 -10 -29 -10 -32 0 -61 30 -61 62 0 10 -11 24 -25 30 -25 11 -29 18 -26
51 2 19 -15 22 -39 7 -12 -7 -11 -12 5 -30 16 -18 17 -24 7 -41 -7 -11 -10
-24 -7 -29 3 -5 -8 -2 -25 6 -30 15 -34 23 -30 57 1 15 -3 17 -22 12 -33 -10
-33 -12 -13 -35 11 -13 15 -27 11 -44 -5 -21 -10 -23 -33 -17 -21 6 -28 14
-29 32 0 31 -4 34 -34 26 l-24 -6 23 -25 c20 -21 22 -28 12 -40 -10 -12 -10
-22 -1 -48 13 -35 3 -99 -16 -105 -15 -5 -64 144 -64 192 0 40 28 97 59 123
60 49 181 68 239 38z m1596 -93 c-9 -86 -9 -86 -44 -68 -27 14 -30 20 -30 65
0 38 5 54 20 67 11 10 20 24 20 32 0 8 8 3 20 -12 17 -22 19 -35 14 -84z
m-131 79 c13 -14 16 -29 11 -65 l-7 -46 -71 6 c-39 3 -72 6 -73 7 -9 7 20 80
38 96 30 25 81 26 102 2z m285 -98 l84 -86 -7 -69 c-6 -60 -10 -69 -24 -63 -9
3 -24 7 -34 8 -24 3 -77 56 -77 77 0 10 -13 26 -30 35 -26 16 -29 23 -25 54 2
19 7 56 10 83 4 26 9 47 13 47 4 0 45 -39 90 -86z m-910 -155 c78 -17 122 -32
122 -40 0 -5 -14 -30 -30 -56 -70 -110 -94 -284 -51 -368 24 -45 20 -53 -29
-56 -27 -2 -51 8 -102 42 l-68 44 0 102 c0 125 3 136 36 121 13 -6 27 -8 32
-4 7 8 -27 41 -49 48 -7 2 -12 35 -13 83 l-1 80 50 6 c28 3 51 7 53 7 2 1 24
-3 50 -9z m-742 -226 c4 -10 8 -43 9 -73 1 -36 14 -88 38 -153 20 -53 37 -102
37 -107 0 -16 -77 -50 -114 -50 -32 0 -36 3 -47 41 -10 31 -10 45 -1 60 18 29
15 52 -23 153 -19 52 -35 101 -35 111 0 15 1 15 16 1 8 -9 22 -16 31 -16 10 0
14 -6 10 -20 -7 -28 15 -53 44 -48 18 2 25 10 27 31 2 16 -2 29 -11 33 -9 3
-12 14 -9 30 5 28 17 31 28 7z m144 -59 c13 -40 6 -60 -8 -23 -20 54 -24 71
-14 65 6 -3 16 -22 22 -42z m-322 -11 c23 -63 22 -66 -2 -28 -28 43 -31 55
-17 55 5 0 14 -12 19 -27z m160 4 c4 -20 -25 -34 -40 -19 -15 15 -1 44 19 40
10 -2 19 -11 21 -21z m-1658 -372 c209 -198 380 -363 380 -366 0 -4 -32 -34
-72 -68 l-71 -60 -160 152 c-88 84 -184 175 -213 202 -51 47 -167 223 -231
349 -27 53 -44 161 -25 155 6 -2 183 -166 392 -364z m1388 238 c5 -16 13 -36
17 -45 4 -10 3 -18 -2 -18 -5 0 -16 20 -25 45 -10 25 -13 45 -8 45 4 0 13 -12
18 -27z m510 -90 c11 -32 23 -66 27 -75 5 -13 2 -18 -9 -18 -10 0 -16 -9 -16
-25 0 -42 -15 -28 -38 36 -16 44 -19 66 -12 79 6 10 10 28 10 39 0 39 18 21
38 -36z m417 3 l29 -20 -24 -7 c-52 -15 -60 -11 -60 27 0 38 0 38 55 0z m-155
-6 c0 -23 4 -30 20 -30 43 0 16 -18 -59 -38 -93 -26 -93 -26 -89 -8 3 14 107
105 121 105 4 1 7 -12 7 -29z m3847 -12 c71 -48 120 -154 107 -232 -14 -86
-69 -160 -277 -374 l-91 -94 -61 5 c-33 2 -96 13 -139 25 -107 30 -231 29
-351 -2 l-90 -23 291 286 c348 343 432 419 481 436 42 15 79 7 130 -27z
m-5348 5 c14 -4 85 -83 192 -217 168 -209 169 -211 142 -218 -16 -4 -33 -15
-39 -23 -10 -14 -15 -12 -38 15 -14 18 -26 44 -26 58 -1 35 -18 57 -52 65 -14
4 -45 29 -68 57 -23 27 -46 48 -50 45 -5 -3 -24 4 -42 15 -40 24 -85 26 -117
4 -21 -15 -24 -15 -43 4 -39 39 -18 130 39 170 45 31 63 36 102 25z m780 -25
c15 -42 6 -48 -13 -9 -18 35 -19 41 -7 41 5 0 14 -14 20 -32z m-560 -87 c-2
-6 -26 17 -53 52 l-49 62 53 -51 c29 -29 51 -57 49 -63z m3690 27 c48 -17 87
-32 88 -33 6 -3 -112 -285 -119 -285 -13 0 -168 91 -168 98 0 3 18 50 40 103
22 54 45 110 50 124 5 14 13 25 17 25 4 0 45 -14 92 -32z m-3080 -12 c7 -8 27
-21 46 -30 28 -14 103 -102 93 -111 -2 -1 -27 -15 -56 -29 l-53 -27 -14 34
c-37 89 -63 166 -58 171 11 10 30 7 42 -8z m305 -22 c14 -38 6 -49 -55 -73
-58 -22 -61 -22 -80 -5 -31 28 -19 45 46 70 72 28 81 29 89 8z m-715 -215
c114 -134 132 -159 113 -159 -8 0 -37 34 -164 189 -71 86 -87 111 -74 111 3 0
59 -64 125 -141z m-409 10 c48 -58 59 -79 41 -79 -11 0 -101 115 -101 129 0
19 8 12 60 -50z m-270 -533 c63 -60 133 -126 154 -147 l39 -38 -26 -34 c-14
-18 -50 -68 -80 -110 -40 -55 -58 -73 -65 -64 -15 19 -502 837 -502 843 0 3
82 -72 182 -168 100 -95 234 -222 298 -282z m454 304 c53 -66 96 -122 96 -125
0 -21 -32 11 -114 112 -80 100 -100 133 -81 133 1 0 46 -54 99 -120z m186 80
c24 -24 26 -53 4 -74 -19 -20 -34 -20 -62 0 -40 28 -23 93 26 94 6 0 21 -9 32
-20z m67 -67 c4 -12 -77 -75 -91 -70 -22 7 -14 23 16 32 19 6 37 20 43 33 10
22 26 25 32 5z m-549 -138 c3 -10 -122 -125 -137 -125 -3 0 -37 31 -74 68
l-68 69 71 62 72 62 66 -62 c37 -35 68 -67 70 -74z m-693 -56 c20 -38 15 -45
-15 -21 -15 12 -21 25 -17 35 9 24 14 21 32 -14z m819 -58 l69 -69 -63 -72
-64 -71 -80 81 -81 81 65 60 c36 32 70 59 75 59 6 0 41 -31 79 -69z m4506 38
c-19 -12 -52 -35 -73 -51 -31 -25 -40 -28 -52 -18 -8 7 -15 16 -15 20 0 9 138
69 160 70 8 0 -1 -10 -20 -21z m353 -8 c24 -9 26 -14 17 -30 -5 -11 -10 -44
-10 -74 0 -72 -16 -87 -67 -63 -63 30 -113 31 -183 3 -57 -23 -65 -24 -75 -10
-6 8 -31 25 -55 37 -24 11 -45 26 -47 32 -6 17 97 83 163 105 65 21 203 21
257 0z m92 -42 c4 -6 -3 -21 -16 -35 -36 -39 -49 -30 -29 20 10 27 34 34 45
15z m149 -109 c26 -28 45 -54 43 -58 -2 -4 -7 -15 -10 -25 -6 -17 -9 -17 -29
-3 -12 9 -30 16 -40 16 -11 0 -18 8 -18 20 0 11 -4 20 -10 20 -5 0 -10 -8 -10
-18 0 -11 -14 -25 -35 -35 -35 -17 -36 -17 -44 6 -9 23 -5 31 53 95 17 17 35
32 42 32 6 0 32 -23 58 -50z m-329 -52 c14 -6 25 -14 25 -17 0 -4 -34 -40 -75
-81 -74 -74 -79 -75 -87 -25 -2 10 -13 22 -25 25 -12 3 -31 17 -42 31 l-20 26
57 27 c61 28 125 33 167 14z m145 -53 c0 -8 -7 -15 -15 -15 -16 0 -20 12 -8
23 11 12 23 8 23 -8z m290 -37 c16 -29 30 -56 30 -60 0 -10 -75 -48 -96 -48
-12 0 -14 5 -9 18 4 9 11 37 15 62 7 44 19 80 26 80 2 0 17 -24 34 -52z m-139
-2 c-16 -19 -129 -68 -141 -61 -20 12 -9 24 43 49 59 28 117 35 98 12z m19
-47 c0 -12 -128 -74 -137 -66 -3 3 26 22 63 41 81 41 74 39 74 25z m210 -24
c0 -5 -5 -3 -10 5 -5 8 -10 20 -10 25 0 6 5 3 10 -5 5 -8 10 -19 10 -25z
m-410 -17 c0 -4 -37 -26 -81 -49 -56 -28 -85 -37 -92 -30 -17 17 12 41 88 77
66 31 84 31 85 2z m383 -70 l13 -63 -70 -5 c-46 -4 -91 -15 -127 -32 l-56 -26
-17 34 c-20 43 -20 41 4 54 14 7 25 7 38 -1 30 -19 71 -3 86 33 13 31 65 67
98 68 12 0 20 -16 31 -62z m-154 38 c-14 -13 -69 -35 -69 -28 0 10 38 30 59
31 8 1 12 -1 10 -3z m-210 -19 c-16 -13 -153 -77 -156 -73 -6 6 150 86 156 80
2 -2 2 -5 0 -7z m221 -15 c0 -14 -23 -32 -42 -32 -25 0 -23 15 5 28 27 13 37
14 37 4z m-110 -12 c-20 -13 -33 -13 -25 0 3 6 14 10 23 10 15 0 15 -2 2 -10z
m-109 -76 c15 -18 2 -47 -23 -52 -21 -4 -44 48 -26 59 20 13 34 11 49 -7z m79
-56 c0 -8 -134 -78 -147 -78 -5 1 14 13 42 27 58 30 74 48 75 83 l1 25 14 -25
c8 -14 14 -28 15 -32z m479 25 c-5 -13 -16 -37 -24 -54 -13 -25 -19 -28 -31
-18 -8 6 -14 29 -14 53 l0 41 39 0 c36 0 38 -1 30 -22z m-654 -23 c9 -16 12
-30 7 -30 -8 0 -32 42 -32 55 0 13 11 2 25 -25z m456 20 c35 -19 22 -37 -28
-38 -61 -1 -113 7 -113 17 0 25 103 41 141 21z m-171 -70 c0 -5 -7 -7 -15 -4
-8 4 -15 8 -15 10 0 2 7 4 15 4 8 0 15 -4 15 -10z m188 -42 c4 -37 -9 -35 -32
3 l-18 31 23 -4 c18 -2 25 -10 27 -30z m-268 4 c0 -4 -29 -22 -65 -40 -63 -31
-65 -31 -75 -11 -11 20 -6 24 70 52 23 8 70 8 70 -1z m194 -23 c29 -34 34 -69
11 -69 -8 0 -21 13 -29 28 -8 16 -22 34 -30 41 -22 18 -20 31 3 31 11 0 31
-14 45 -31z m-66 -47 c13 -20 13 -22 -7 -22 -18 0 -51 42 -51 66 0 11 43 -21
58 -44z m-126 -24 c-26 -4 -60 -9 -77 -12 -21 -4 -11 5 35 28 l65 34 12 -21
c11 -21 9 -22 -35 -29z m-52 -72 c0 -2 -7 -6 -15 -10 -8 -3 -15 -1 -15 4 0 6
7 10 15 10 8 0 15 -2 15 -4z m217 -63 c-4 -22 -19 -49 -37 -68 l-31 -30 16 37
c8 21 15 48 15 61 0 27 7 37 28 37 11 0 13 -8 9 -37z m-77 13 c0 -27 -21 -71
-48 -98 -42 -45 -45 -42 -89 70 -7 16 52 41 100 42 26 0 37 -4 37 -14z m-30
-205 c-13 -11 -29 -17 -34 -13 -6 3 3 12 19 18 41 18 44 17 15 -5z"/>
<path d="M5028 6007 c-58 -22 -160 -100 -233 -179 -180 -195 -283 -474 -310
-845 -4 -52 -3 -93 2 -93 21 0 237 129 333 198 125 91 270 232 329 321 93 137
135 262 135 401 1 71 -3 92 -23 126 -12 22 -36 49 -53 58 -39 24 -133 30 -180
13z"/>
<path d="M4280 4199 c-173 -121 -385 -314 -515 -469 -232 -277 -352 -585 -331
-848 29 -347 239 -600 602 -721 138 -46 226 -62 377 -68 l137 -6 0 31 c0 17
-27 323 -60 681 -33 358 -60 660 -60 671 0 19 -4 20 -37 14 -77 -13 -200 -57
-283 -100 -151 -77 -248 -185 -290 -322 -25 -81 -27 -234 -4 -313 44 -150 150
-274 299 -349 101 -52 91 -62 -35 -36 -225 47 -383 201 -452 441 -59 207 0
484 146 689 48 68 159 176 227 223 65 45 182 102 284 139 l90 32 -4 144 c-2
79 -6 160 -10 181 l-6 38 -75 -52z"/>
<path d="M4560 3484 c-1 -20 133 -1339 136 -1343 6 -7 114 48 171 87 227 155
348 410 330 702 -16 266 -189 477 -438 534 -85 20 -199 31 -199 20z"/>
</g>
</svg>
